<svg xmlns="http://www.w3.org/2000/svg" width="11" height="6" viewBox="0 0 11 6">
  <path fill="#2C2C2C" d="M362.890088,169.618506 L362.339025,169.103126 C362.265596,169.034303 362.18101,169 362.085383,169 C361.989987,169 361.90544,169.034303 361.832011,169.103126 L357.500058,173.154629 L353.168298,169.103235 C353.094831,169.034412 353.010283,169.000108 352.914772,169.000108 C352.819222,169.000108 352.734674,169.034412 352.661245,169.103235 L352.110259,169.61865 C352.036676,169.687329 352,169.766407 352,169.855776 C352,169.945073 352.036792,170.024151 352.110259,170.092829 L357.246532,174.896946 C357.31996,174.965661 357.404546,175 357.500058,175 C357.595569,175 357.680001,174.965661 357.753391,174.896946 L362.890088,170.092829 C362.963517,170.024115 363,169.945037 363,169.855776 C363,169.766407 362.963517,169.687329 362.890088,169.618506 Z" transform="translate(-352 -169)"/>
</svg>
