<svg xmlns="http://www.w3.org/2000/svg" width="25" height="30" viewBox="0 0 25 30">
  <path fill="#172D61" d="M24.9634183,32.7049787 L20.9780756,23.1165957 C20.8765573,22.872383 20.5955728,22.7562766 20.350456,22.8575106 C20.1053391,22.9587447 19.9888974,23.238766 20.0904796,23.4829787 L23.6933197,32.1511277 L20.4070115,31.2021702 C20.1912933,31.1398085 19.9609078,31.2349149 19.8526004,31.4310638 L18.2021126,34.4178511 L14.336286,25.1168298 C18.7981559,24.2593404 22.1789368,20.3389787 22.1789368,15.6458936 C22.1790009,10.3271489 17.8370313,6 12.4999911,6 C7.1629508,6 2.8209172,10.3271489 2.8209172,15.6458936 C2.8209172,17.8002128 3.53340218,19.7917021 4.7357366,21.3990638 L0.036563815,32.7049787 C-0.0340826191,32.8750213 -0.000712907212,33.0703404 0.122453995,33.2074468 C0.245556847,33.3445532 0.43674416,33.3991915 0.614096813,33.348 L4.49119617,32.2283617 L6.43829644,35.7522128 C6.52309778,35.9055957 6.6846943,36 6.85897258,36 C6.86781139,36 6.87671425,35.9997447 6.88561711,35.9992979 C7.07001519,35.9890851 7.23218815,35.8745106 7.30289863,35.7044681 L11.0264717,26.745766 C11.1279899,26.5014894 11.0116122,26.2214681 10.7664954,26.1202979 C10.5213785,26.0191277 10.240394,26.1351064 10.1388758,26.379383 L6.7977414,34.4178511 L5.14738177,31.4310638 C5.03901027,31.2349149 4.80849666,31.1398085 4.59290654,31.2021702 L1.30666244,32.1511277 L5.4312485,22.2275745 C7.19888249,24.1118298 9.7135881,25.2917234 12.4999911,25.2917234 C12.7876367,25.2917234 13.0721439,25.278383 13.3534487,25.2538085 L17.6971476,35.7044681 C17.767794,35.8745106 17.930031,35.9890851 18.114365,35.999234 C18.1233319,35.9997447 18.1321707,36 18.1410736,36 C18.3153519,36 18.4769484,35.9055957 18.5616857,35.7522128 L20.50885,32.2283617 L24.3859494,33.348 C24.5634301,33.3992553 24.7544253,33.3445532 24.8775922,33.2074468 C25.0007591,33.0703404 25.0340648,32.8750213 24.9634183,32.7049787 Z M3.78165746,15.6458936 C3.78165746,10.8550851 7.69270298,6.95744681 12.4999911,6.95744681 C17.3072792,6.95744681 21.2182606,10.8550851 21.2182606,15.6458936 C21.2182606,20.4367021 17.3072792,24.3342766 12.4999911,24.3342766 C7.69270298,24.3342766 3.78165746,20.4367021 3.78165746,15.6458936 Z M18.0504438,13.8485745 C17.9951692,13.6789149 17.8496491,13.5539362 17.673065,13.524383 L14.4406864,12.9838085 L12.9259833,10.0872766 C12.8432315,9.92904255 12.6790731,9.82978723 12.4999911,9.82978723 C12.3209731,9.82978723 12.1567506,9.92904255 12.0739988,10.0872766 L10.5592317,12.9838085 L7.32691714,13.524383 C7.15033308,13.5538723 7.004877,13.6788511 6.94953836,13.8485745 C6.89419972,14.0182979 6.93813758,14.2045532 7.06361026,14.3318936 L9.35977949,16.6626383 L8.87684738,19.8933191 C8.85045905,20.0698085 8.9247563,20.246234 9.06963593,20.3511702 C9.21438746,20.4559787 9.40583097,20.4718723 9.56608245,20.3924043 L12.4999911,18.9363191 L15.4338356,20.3924043 C15.5016639,20.4260426 15.5749364,20.4426383 15.6479526,20.4426383 C15.7476775,20.4426383 15.8467618,20.4117447 15.9303462,20.351234 C16.0752258,20.2462979 16.1495231,20.0698723 16.1231348,19.893383 L15.6402667,16.6627021 L17.9364359,14.3318936 C18.0618446,14.2045532 18.1057824,14.0182979 18.0504438,13.8485745 Z M14.7870653,16.1620213 C14.681512,16.2691915 14.6325142,16.4194468 14.6547393,16.5679149 L15.037114,19.1258298 L12.7141721,17.973 C12.6466641,17.9395532 12.5733916,17.922766 12.4999911,17.922766 C12.4266546,17.922766 12.353254,17.9394894 12.2858741,17.973 L9.96293223,19.1258298 L10.3453069,16.5679149 C10.367532,16.4194468 10.3185342,16.2691277 10.2129809,16.1620213 L8.39494007,14.3165745 L10.95416,13.8885319 C11.1027545,13.8637021 11.2310453,13.7708298 11.300667,13.6376809 L12.4999911,11.3443404 L13.6993152,13.6377447 C13.7690009,13.7708936 13.8972277,13.863766 14.0458222,13.8885957 L16.6051061,14.3166383 L14.7870653,16.1620213 Z M19.7767659,16.128766 C19.5137152,16.0937234 19.2722492,16.2783191 19.2374704,16.5404681 C18.7918791,19.8919787 15.8953753,22.4194468 12.4999911,22.4194468 C8.75220735,22.4194468 5.70313799,19.3808936 5.70313799,15.6458936 C5.70313799,11.9108936 8.75220735,8.87234043 12.4999911,8.87234043 C15.8954393,8.87234043 18.7918791,11.3997447 19.2374704,14.7513191 C19.2722492,15.0134681 19.5141636,15.1981915 19.7767659,15.1630213 C20.0396885,15.1282979 20.2247271,14.8876596 20.1898202,14.6255745 C19.6812683,10.7998723 16.3753611,7.91489362 12.4999911,7.91489362 C8.22245516,7.91489362 4.74239773,11.3829574 4.74239773,15.6458936 C4.74239773,19.9088298 8.22245516,23.3768298 12.4999911,23.3768298 C16.3753611,23.3768298 19.6812683,20.4918511 20.1898842,16.6661489 C20.2247271,16.4041277 20.0397526,16.1634894 19.7767659,16.128766 Z" transform="translate(0 -6)"/>
</svg>
