<svg xmlns="http://www.w3.org/2000/svg" width="28" height="28" viewBox="0 0 28 28">
  <path fill="#172D61" d="M27.4166473,31.4996309 C27.7388667,31.4996309 28,31.760872 28,32.0830895 C28,32.4051976 27.738812,32.6664388 27.4166473,32.6664388 L25.9582929,32.6664388 L22.1339885,32.6664388 L21.5586749,34.5841579 C21.4846826,34.8308522 21.2575103,34.9998359 20.9999316,34.9998359 L18.4870908,34.9998359 C18.4857236,34.9998359 18.4843564,35 18.4829892,35 C18.4821142,35 18.4812939,34.9998359 18.4803642,34.9998359 L7.00001367,34.9998359 C6.74238036,34.9998359 6.51531741,34.8308522 6.44127039,34.5841579 L5.86595677,32.6664388 L2.04170711,32.6664388 L0.583352702,32.6664388 C0.26118801,32.6664388 0,32.4051976 0,32.0830895 C0,31.7609814 0.26118801,31.4997402 0.583352702,31.4997402 L1.47213569,31.4997402 C1.57133901,29.3535377 2.21588714,27.2743271 3.35218623,25.453131 C4.45791496,23.6809348 5.98659763,22.2151515 7.79380428,21.1842962 C7.71888226,20.9873125 7.64849931,20.7681806 7.58106949,20.5219784 L6.3785984,20.5219784 C5.28446345,20.5219784 4.39436796,19.6318335 4.39436796,18.5377049 L4.39436796,16.6995012 C4.39436796,15.6053726 5.28446345,14.7152824 6.3785984,14.7152824 L6.58542692,14.7152824 C6.5347862,13.9229183 6.56262219,13.1596478 6.74582568,12.5463846 C7.25179541,10.8526646 8.21183635,9.43954516 9.52198735,8.4594943 C10.7985055,7.50465428 12.3469851,7 13.9999727,7 C15.6530149,7.00005469 17.2014945,7.50470897 18.4778486,8.45938492 C19.7881636,9.43943578 20.7480405,10.8526646 21.2539009,12.5463299 C21.4371591,13.1595931 21.4650497,13.9228636 21.414409,14.715173 L21.6214016,14.715173 C22.7155366,14.715173 23.605632,15.6053179 23.605632,16.6993918 L23.605632,18.5375956 C23.605632,19.6317241 22.7155366,20.5218691 21.6214016,20.5218691 L20.4188211,20.5218691 C20.3513913,20.7680165 20.281063,20.9872032 20.2060317,21.1841868 C22.0133477,22.2150968 23.5419757,23.6808802 24.6477044,25.452967 C25.7840035,27.2740536 26.428661,29.3534283 26.5277549,31.4996309 L27.4166473,31.4996309 Z M20.8231813,18.5567361 C20.7759312,18.8436803 20.729228,19.1088043 20.6821966,19.3552252 L21.6214563,19.3552252 C22.0722462,19.3552252 22.4389813,18.9884375 22.4389813,18.5375956 L22.4389813,16.6993918 C22.4389813,16.2486045 22.0722462,15.8818716 21.6214563,15.8818716 L21.6214563,15.8819262 L21.2931119,15.8819262 C21.1951117,16.5910016 21.0637521,17.2761786 20.9534472,17.8510514 C20.9000174,18.1298471 20.8538064,18.3705806 20.8231813,18.5567361 Z M6.3785984,19.3551705 L7.31769398,19.3551705 C7.27071733,19.1087496 7.22395942,18.8436256 7.17670933,18.5566267 C7.14608427,18.3702525 7.09981855,18.1292456 7.04633407,17.8501764 C6.93613855,17.275577 6.8048336,16.5905641 6.70683341,15.8818716 L6.3785984,15.8818716 C5.92780845,15.8818716 5.56107336,16.2486045 5.56107336,16.6993918 L5.56107336,18.5375956 C5.56107336,18.9884922 5.92780845,19.3552252 6.3785984,19.3552252 L6.3785984,19.3551705 Z M17.7897144,13.988379 C17.5471749,13.776411 17.5223467,13.4079281 17.7343706,13.1652259 C17.7905894,13.1008043 17.8411208,13.0377499 17.884324,12.9777032 C18.0725587,12.7163527 18.4371063,12.657017 18.6986225,12.8453053 C18.9600292,13.0336483 19.0192559,13.3981938 18.8310212,13.659599 C18.7665445,13.7492314 18.6931537,13.8412155 18.6128176,13.9330901 C18.4975908,14.0650505 18.3358796,14.1325346 18.1734027,14.1325346 C18.0371212,14.1325346 17.9003475,14.0851208 17.7897144,13.988379 Z M7.75016357,14.6432045 C8.90904865,14.4785958 11.497085,14.0342069 12.7588921,13.2112726 C12.9039783,13.1166089 13.0836271,13.0913434 13.2493853,13.1423666 C13.4149793,13.1934446 13.5493468,13.3155066 13.616011,13.4754669 L14.2496216,14.9957735 C14.2913482,15.0958512 14.3259655,15.1840071 14.3563171,15.2611709 C14.3988641,15.2468975 14.4430516,15.2318038 14.4855986,15.217257 C14.5709113,15.1881633 14.6670521,15.1552963 14.7758257,15.1193667 C15.0521075,15.0283124 15.7634839,14.6855325 16.4809306,14.20855 C16.7491187,14.0302147 17.1112053,14.1029488 17.289651,14.3712993 C17.4680419,14.6395405 17.395198,15.001625 17.1269006,15.1800149 C16.3578835,15.6912317 15.5459913,16.0938395 15.1414671,16.2272218 C15.0371231,16.2616201 14.9447011,16.2931746 14.8627243,16.3212292 C14.5644581,16.4230569 14.3492624,16.4965567 14.1452776,16.4965567 C14.0593634,16.4966113 13.9753632,16.4835411 13.8879724,16.4540646 C13.5232608,16.3311276 13.4015262,16.0212148 13.2726275,15.693091 C13.244354,15.6210132 13.2119242,15.538326 13.1727679,15.4443186 L12.7896812,14.5251894 C11.2425688,15.2674052 8.94629091,15.6551381 7.87528882,15.8046531 C7.97017182,16.4724396 8.09392987,17.1178589 8.19214881,17.6303882 C8.24721923,17.9175511 8.29479745,18.1656126 8.32793814,18.3671353 C8.41822738,18.9156488 8.50239161,19.3694986 8.58775896,19.7504502 C8.60066524,19.7882391 8.60974338,19.8275593 8.61466526,19.8681919 C8.98479099,21.4487639 9.39172147,21.7076535 10.4273954,22.3664712 C10.6445052,22.5046113 10.8899978,22.6607982 11.1632718,22.8456959 C12.1051565,23.3860063 13.0594005,23.6599349 13.9996992,23.6599349 C14.940162,23.6599349 15.8945701,23.3859516 16.8367282,22.8453678 C17.1100022,22.6604154 17.3555495,22.5042832 17.5726593,22.3661978 C18.0925197,22.0355585 18.453786,21.8055437 18.7317085,21.458717 C17.6195813,21.9762774 16.2708755,22.2741591 14.9546542,22.2741591 C14.6133489,22.2741591 14.2744498,22.2539248 13.9421679,22.2125812 C13.9406913,22.2123625 13.9393241,22.2121984 13.9378475,22.2120343 C13.9341288,22.2116515 13.93041,22.2113234 13.926746,22.2108859 C13.9204569,22.2100656 13.9144412,22.2085343 13.9081522,22.20755 C13.8967771,22.2056906 13.8853474,22.2039406 13.8741912,22.2014797 C13.8660974,22.199675 13.8582771,22.1974328 13.8502927,22.1953547 C13.8396286,22.192511 13.8290192,22.1897766 13.8185739,22.1863313 C13.8099332,22.1834876 13.8016754,22.180261 13.7933082,22.1770892 C13.7839566,22.1734798 13.7746597,22.1699798 13.7656909,22.166097 C13.7566128,22.1620501 13.7478081,22.1576205 13.7390581,22.1531908 C13.7311284,22.1492533 13.7231987,22.1453158 13.7154877,22.1409955 C13.7064096,22.136019 13.6976049,22.1304409 13.6888549,22.1248628 C13.6818002,22.1204331 13.6747455,22.1160581 13.6679095,22.111355 C13.6592689,22.1053941 13.6510657,22.098941 13.6426985,22.0925426 C13.6362454,22.087402 13.6295735,22.0823708 13.6232844,22.0770114 C13.6155188,22.0704489 13.6080813,22.0635037 13.6006984,22.0565037 C13.5944094,22.0505428 13.5880656,22.0446365 13.58205,22.0384022 C13.5753781,22.0315116 13.5690343,22.0243476 13.5627452,22.0171835 C13.5565655,22.0102382 13.5504405,22.003293 13.544589,21.9960195 C13.5390655,21.9889649 13.5338155,21.9817462 13.5285655,21.9745274 C13.5227139,21.9665431 13.516917,21.9585041 13.5114483,21.9502463 C13.5067998,21.9430823 13.5025342,21.9356448 13.4981592,21.9283167 C13.4929639,21.9195667 13.4877138,21.9107074 13.4830107,21.901684 C13.4790732,21.8941918 13.4755732,21.8863715 13.4719091,21.8786059 C13.4675888,21.8693091 13.4632138,21.8601763 13.459495,21.8507154 C13.4560497,21.8423483 13.4530966,21.8337077 13.4501435,21.8251765 C13.4468622,21.8160437 13.4436356,21.8070203 13.4409013,21.7976688 C13.4380028,21.7880438 13.4357606,21.7783095 13.4333544,21.7685751 C13.4312215,21.7599892 13.4290887,21.7514033 13.4273934,21.742708 C13.4253153,21.7318253 13.4238387,21.7207784 13.4223622,21.7096769 C13.4212137,21.7016379 13.4200106,21.6937629 13.419245,21.6856692 C13.4182606,21.6741302 13.4178778,21.6624271 13.4175496,21.6507787 C13.4173309,21.644599 13.4165653,21.6384741 13.4165653,21.632185 L13.4165653,21.1655384 C13.4165653,20.8434303 13.677808,20.5821891 13.999918,20.5821891 L15.0499747,20.5821891 C15.3424987,20.5821891 15.5839992,20.797657 15.6261633,21.0784216 C17.1129006,20.9516018 18.5772707,20.4163226 19.4376708,19.6343491 C19.5143975,19.277952 19.5906867,18.8610709 19.6720072,18.3671353 C19.7051479,18.1657767 19.7526714,17.9180433 19.8076871,17.6312085 C19.9301327,16.9927344 20.0919533,16.148308 20.1884222,15.3110457 C20.1883676,15.3069441 20.187766,15.3027879 20.187766,15.298577 C20.187766,15.2505615 20.1941644,15.204132 20.2051567,15.1594525 C20.2956646,14.3015184 20.3107037,13.4648576 20.1360315,12.8803598 C19.2677564,9.97296495 16.9165174,8.16675325 13.999918,8.16664388 C11.0835373,8.16664388 8.73235299,9.97285557 7.86374973,12.8803052 C7.7244604,13.3464596 7.70603068,13.9732853 7.75016357,14.6432045 Z M21.1433225,31.9087465 L21.9660429,29.1662884 L8.52754791,29.1662884 L8.77041557,30.0727302 C8.85386886,30.3839555 8.66918881,30.7038215 8.35796164,30.7871649 C8.30743029,30.800782 8.25657081,30.8072351 8.20664103,30.8072351 C7.94900771,30.8072351 7.71335882,30.635353 7.64352274,30.3747134 L7.31977211,29.1663431 L6.0339571,29.1663431 L6.85596652,31.9060121 C6.8568962,31.9088558 6.85766183,31.9117543 6.85853683,31.9146527 L7.43406921,33.8329733 L18.0349883,33.8329733 L18.358739,32.6245483 C18.4420829,32.3134324 18.7617866,32.128644 19.0731779,32.2120968 C19.3843504,32.2954949 19.5690304,32.6153062 19.4856318,32.9265315 L19.2427641,33.833028 L20.5659855,33.833028 L21.142721,31.9107699 C21.1429944,31.9101136 21.1431585,31.9094574 21.1433225,31.9087465 Z M7.02708404,25.4201546 C7.27312358,25.6281304 7.30396739,25.9961758 7.09599042,26.2422686 C7.02473247,26.3265964 6.95418546,26.413057 6.8864822,26.4993535 C6.77136479,26.6458608 6.60024727,26.7224776 6.42727037,26.7224776 C6.30127012,26.7224776 6.1742855,26.6818997 6.0674806,26.5979547 C5.81405823,26.399057 5.76992533,26.0323788 5.96887885,25.7789579 C6.04522274,25.6816692 6.12468384,25.5842165 6.20496524,25.48917 C6.41305159,25.2431319 6.78104449,25.2122335 7.02708404,25.4201546 Z M22.4841533,31.4996309 L22.4841533,31.4995762 L25.3602292,31.4996309 C25.1645023,27.6167788 23.0212403,24.1335815 19.6390305,22.2034484 C19.2837799,22.6395795 18.827904,22.9505314 18.198723,23.3506236 C17.983582,23.4873965 17.7397846,23.6424897 17.4735107,23.8230671 L17.4377997,23.8454889 C16.3102506,24.4964863 15.1534983,24.8265788 13.9997539,24.8265788 C13.9996992,24.8265788 13.9996992,24.8265788 13.9996445,24.8265788 C12.8459001,24.8265788 11.6894213,24.496541 10.5620363,23.8457623 L10.5262706,23.8232858 C10.4908877,23.7993328 10.457036,23.7769657 10.4224188,23.753833 L9.88221461,24.0309335 C9.36093235,24.2981356 8.86453294,24.6165249 8.40636017,24.9773517 C8.29939121,25.0615701 8.17207846,25.1024215 8.04580478,25.1024215 C7.873156,25.1024215 7.70231192,25.0261327 7.58713982,24.8800083 C7.38780349,24.6269155 7.43138951,24.2601826 7.68448376,24.0607927 C8.1860238,23.6658411 8.72841549,23.3163894 9.29694785,23.0208046 C8.91665023,22.7603291 8.61335276,22.5135253 8.3607507,22.2035031 C4.97865035,24.1335815 2.83544304,27.6167788 2.63971609,31.4996309 L5.51601077,31.4996309 L4.69126698,28.7507197 C4.63832937,28.5740251 4.67190756,28.382729 4.78199371,28.2347999 C4.89207987,28.0868708 5.06560364,27.9996992 5.25001025,27.9996992 L22.7501538,27.9996992 C22.9345604,27.9996992 23.1080295,28.0868708 23.2181703,28.2347999 C23.3282565,28.382729 23.3618894,28.5740798 23.3088971,28.7507197 L22.4841533,31.4996309 Z M8.53132135,31.4347171 C8.84287665,31.3513736 9.16241633,31.5359979 9.24586962,31.8470592 L9.31401038,32.1010816 C9.39746367,32.4122523 9.21289299,32.7321729 8.90166582,32.8156257 C8.85107979,32.8292429 8.80022031,32.835696 8.75023584,32.835696 C8.49265721,32.835696 8.25700831,32.6638685 8.18711755,32.4032836 L8.11897679,32.1492611 C8.03552351,31.8380905 8.22009418,31.5181699 8.53132135,31.4347171 Z M19.2463735,31.56449 C18.9351464,31.4810372 18.7505757,31.1611166 18.8341383,30.8499459 L18.9022791,30.5959781 C18.9858418,30.2848622 19.3057643,30.1000738 19.6168274,30.1837454 C19.9280545,30.2672529 20.1126252,30.5871735 20.0290626,30.8982895 L19.9609218,31.1522572 C19.891031,31.4128421 19.6553275,31.5846149 19.3978582,31.5846149 C19.347819,31.5846149 19.2969596,31.5781071 19.2463735,31.56449 Z" transform="translate(0 -7)"/>
</svg>
