<svg xmlns="http://www.w3.org/2000/svg" width="25" height="20" viewBox="0 0 25 20">
  <path fill="#FFF" d="M160.500042,165.037291 L169.416502,172.426387 C169.426496,172.446753 169.432145,172.478092 169.432145,172.519587 L169.432145,180.001829 C169.432145,180.272037 169.333567,180.50632 169.137118,180.703257 C168.940995,180.900958 168.708102,181 168.439363,181 L162.485117,181 L162.485117,175.013813 L158.515022,175.013813 L158.515022,180.999782 L152.560721,180.999782 C152.291928,180.999782 152.059361,180.900521 151.862966,180.703257 C151.666517,180.506101 151.568266,180.271983 151.568266,180.001829 L151.568266,172.519587 C151.568266,172.508886 151.570981,172.493817 151.576087,172.473069 C151.581301,172.452158 151.583908,172.436816 151.583908,172.426387 L160.500042,165.037291 Z M172.827557,170.742786 C172.930697,170.82594 172.987562,170.937648 172.998153,171.077585 C173.008907,171.217957 172.97268,171.340204 172.890016,171.444269 L171.928519,172.597663 C171.845257,172.690918 171.737067,172.748464 171.60286,172.768993 L171.55626,172.768993 C171.421836,172.768993 171.313482,172.732795 171.230601,172.660288 L160.500042,163.665666 L149.769592,172.660342 C149.645488,172.743441 149.521383,172.779913 149.397279,172.76943 C149.262855,172.748519 149.154447,172.691354 149.07162,172.597882 L148.110231,171.444323 C148.027404,171.340477 147.991286,171.218012 148.001768,171.077803 C148.012305,170.937485 148.068953,170.825776 148.17231,170.742786 L159.321891,161.405285 C159.652655,161.135077 160.045499,161 160.500368,161 C160.955291,161 161.348189,161.135077 161.678628,161.405285 L165.462158,164.585379 L165.462158,161.545713 C165.462158,161.400371 165.508596,161.280746 165.601525,161.187164 C165.694671,161.093691 165.813561,161.046955 165.958359,161.046955 L168.935564,161.046955 C169.080524,161.046955 169.199469,161.093691 169.292018,161.187164 C169.385327,161.280746 169.431819,161.400317 169.431819,161.545713 L169.431819,167.905736 L172.827557,170.742786 Z" transform="translate(-148 -161)"/>
</svg>
