<svg xmlns="http://www.w3.org/2000/svg" width="23" height="24" viewBox="0 0 23 24">
  <path fill="#172D61" d="M19.9005308,12.1439602 C21.8994274,14.1715094 23.0001118,16.8673856 23,19.7349649 C23,20.2045969 22.624571,20.5854287 22.1614898,20.5854287 C21.6982967,20.5854287 21.3229795,20.2045969 21.3229795,19.7348515 C21.3230914,17.3218206 20.3968171,15.0531611 18.7146537,13.3469032 C17.0326022,11.6406453 14.7962396,10.701041 12.4175538,10.7011544 C11.9544725,10.7011544 11.5790435,10.3203227 11.5790435,9.85057721 C11.5790435,9.38083177 11.9543607,9 12.4175538,9 C15.2441158,8.99988659 17.901746,10.1164109 19.9005308,12.1439602 Z M16.4512351,19.7349649 C16.4510115,17.4791207 14.6415065,15.6436885 12.417442,15.6433482 C11.9543607,15.6432348 11.5790435,15.2624031 11.5790435,14.7926576 C11.5791553,14.3229122 11.9544725,13.9421938 12.4175538,13.9421938 C12.4176656,13.9421938 12.4175538,13.9421938 12.4176656,13.9421938 C15.5662155,13.9426475 18.128032,16.5412176 18.1282556,19.7348515 C18.1282556,20.2045969 17.7529384,20.5854287 17.2898572,20.5854287 C16.8266641,20.5855421 16.4512351,20.2047103 16.4512351,19.7349649 Z M14.5957797,24.0717745 C15.9375079,24.1457181 19.4850769,26.7890852 19.9444687,28.055538 C20.1492888,28.6146507 20.1525311,29.2052915 19.9530774,29.8084075 C19.5013999,31.1688774 18.6967655,32.1506703 17.6255967,32.6486549 C17.1218197,32.8829606 16.5786887,33 16.0114086,33 C15.408911,33 14.7789103,32.867877 14.1391829,32.6039713 C10.9445708,31.2830815 8.1488659,29.4361949 5.82898761,27.1138923 C5.82317394,27.1083352 5.81747207,27.1026647 5.811882,27.0968807 C3.51827703,24.741916 1.69423779,21.9026892 0.390522087,18.6577939 C-0.114820076,17.3975787 -0.12991326,16.1746755 0.346360548,15.1206402 C0.837392136,14.0341696 1.80536834,13.2178423 3.14564308,12.7600049 C3.74132075,12.5572273 4.32380585,12.5608564 4.877558,12.7702118 C6.12268979,13.234627 8.72855597,16.8332491 8.80122685,18.1921312 C8.86718966,19.4930607 7.91687807,20.1517477 7.4600577,20.4681624 C7.07758523,20.7330889 6.55592007,20.6335146 6.29475209,20.2456514 C6.0334723,19.8577882 6.1317457,19.3285024 6.51410636,19.0635759 C7.05310073,18.6900024 7.13862878,18.5205674 7.12655423,18.2819522 C7.0420324,17.5540849 4.94765746,14.6548641 4.29037724,14.3635131 C4.09930871,14.2913841 3.91058801,14.2938792 3.67983,14.3723591 C2.79000295,14.6764121 2.16413892,15.180294 1.87077214,15.8294545 C1.59205134,16.4460663 1.61731845,17.2022862 1.94366663,18.0162318 C3.16185428,21.0483695 4.86157041,23.6980876 6.99541123,25.8915561 C6.99619384,25.8924634 6.99708825,25.8932573 6.99798266,25.8941646 C9.16245706,28.0632499 11.7779382,29.7906021 14.7716433,31.028362 C15.5733708,31.3592933 16.3187505,31.384924 16.9267263,31.1021921 C17.5666773,30.8046035 18.0634108,30.1697327 18.3634857,29.2663063 C18.4405168,29.0330213 18.4432,28.8412445 18.3714236,28.6456117 C18.0852121,27.9812542 15.2270102,25.8566258 14.5013076,25.7700937 C14.2745744,25.7592063 14.1074314,25.8452847 13.7384869,26.3924894 C13.4769835,26.7802392 12.9552065,26.8795866 12.5729576,26.6143199 C12.1907088,26.3490533 12.0927708,25.8197674 12.3542742,25.4320176 C12.6665354,24.96885 13.3176665,24.0046356 14.5957797,24.0717745 Z" transform="translate(0 -9)"/>
</svg>
