<svg xmlns="http://www.w3.org/2000/svg" width="24" height="24" viewBox="0 0 24 24">
  <path fill="#172D61" d="M148,30 C154.617256,30 160,35.3832273 160,42 C160,48.6162894 154.616289,54 148,54 C141.383227,54 136,48.6162894 136,42 C136,35.3832273 141.383227,30 148,30 Z M147.999517,44.4023201 C146.675099,44.4023201 145.596713,43.3244179 145.598163,41.9995166 C145.598647,41.4765166 145.768307,40.9936357 146.052526,40.5992105 C146.48997,39.9940385 147.199065,39.5976799 148.000967,39.5976799 C148.802385,39.5976799 149.511963,39.9945219 149.948441,40.5996939 C150.231693,40.9941191 150.402804,41.4769999 150.402804,42 C150.402804,43.3249013 149.323451,44.4023201 147.999517,44.4023201 Z M153.245468,39.0611456 L150.939338,39.0688794 L150.931604,36.7550149 L152.944333,36.7487312 L153.245468,36.7477644 L153.245468,37.0474503 L153.245468,39.0611456 Z M154.824619,40.5996939 L154.824619,37.8135825 C154.824619,36.3586562 153.641344,35.175864 152.186417,35.175864 L143.813099,35.175864 C142.358173,35.175864 141.175381,36.3586562 141.175381,37.8135825 L141.175381,40.5996939 L141.175381,46.1873842 C141.175381,47.6427938 142.358173,48.8255861 143.813099,48.8255861 L152.186901,48.8255861 C153.641344,48.8255861 154.824619,47.6427938 154.824619,46.1873842 L154.824619,40.5996939 Z M151.733022,42 C151.733022,41.505035 151.632965,41.0318215 151.455571,40.5996939 L153.493918,40.5996939 L153.493918,46.1873842 C153.493918,46.9095303 152.90663,47.494401 152.185934,47.494401 L143.812616,47.494401 C143.090953,47.494401 142.504632,46.9095303 142.504632,46.1873842 L142.504632,40.5996939 L144.542012,40.5996939 C144.366068,41.0318215 144.267462,41.505035 144.267462,42 C144.267462,44.0576815 145.941352,45.7330218 148,45.7330218 C150.058648,45.7330218 151.733022,44.0576815 151.733022,42 Z" transform="translate(-136 -30)"/>
</svg>
