<svg xmlns="http://www.w3.org/2000/svg" width="21" height="16" viewBox="0 0 21 16">
  <path fill="#172D61" d="M166.507536,1954 L150.492519,1954 C149.118155,1954 148,1955.07717 148,1956.40115 L148,1967.59885 C148,1968.92283 149.118155,1970 150.492519,1970 L166.507536,1970 C167.8819,1970 169,1968.92283 169,1967.59885 L169,1956.40115 C169,1955.07717 167.8819,1954 166.507536,1954 Z M166.507536,1967.88017 L150.492519,1967.88017 C150.290497,1967.88017 150.113316,1967.74874 150.113316,1967.59885 L150.113316,1957.88187 L157.356482,1964.0161 C157.504976,1964.14191 157.693808,1964.21115 157.888246,1964.21115 L159.111534,1964.21121 C159.305862,1964.21121 159.494804,1964.14191 159.643353,1964.0161 L166.886849,1957.88165 L166.886849,1967.59896 C166.886739,1967.74874 166.709503,1967.88017 166.507536,1967.88017 Z M158.500027,1962.10632 L151.455146,1956.11983 L165.544909,1956.11983 L158.500027,1962.10632 Z" transform="translate(-148 -1954)"/>
</svg>
