<svg xmlns="http://www.w3.org/2000/svg" width="16" height="12" viewBox="0 0 16 12">
  <path fill="#4A4A4A" d="M657.10098,12 L644.899062,12 C643.851928,12 643,12.807878 643,13.8008662 L643,22.1991338 C643,23.192122 643.851928,24 644.899062,24 L657.10098,24 C658.148114,24 659,23.192122 659,22.1991338 L659,13.8008662 C659,12.807878 658.148114,12 657.10098,12 Z M657.10098,22.4101272 L644.899062,22.4101272 C644.745141,22.4101272 644.610146,22.3115561 644.610146,22.1991338 L644.610146,14.9114038 L650.128749,19.5120785 C650.241887,19.6064322 650.385759,19.658364 650.533902,19.658364 L651.465931,19.6584053 C651.61399,19.6584053 651.757946,19.6064322 651.871126,19.5120785 L657.38998,14.9112384 L657.38998,22.1992165 C657.389896,22.3115561 657.254859,22.4101272 657.10098,22.4101272 Z M651.000021,18.0797376 L645.632492,13.5898728 L656.36755,13.5898728 L651.000021,18.0797376 Z" transform="translate(-643 -12)"/>
</svg>
