<svg xmlns="http://www.w3.org/2000/svg" width="14" height="14" viewBox="0 0 14 14">
  <path fill="#4A4A4A" d="M882.785386,19.3454301 C882.479813,19.0286738 882.111236,18.859319 881.720607,18.859319 C881.333128,18.859319 880.961401,19.0255376 880.643227,19.3422939 L879.647753,20.3301971 C879.565847,20.2862903 879.483941,20.2455197 879.405185,20.2047491 C879.291777,20.1482975 879.184669,20.0949821 879.093312,20.0385305 C878.160843,19.4489247 877.31343,18.6805556 876.50067,17.6863799 C876.106891,17.1908602 875.842271,16.7737455 875.650107,16.3503584 C875.908426,16.1151434 876.147844,15.8705197 876.380961,15.6353047 C876.469167,15.547491 876.557374,15.4565412 876.64558,15.3687276 C877.30713,14.7101254 877.30713,13.8570789 876.64558,13.1984767 L875.785567,12.3422939 C875.687909,12.2450717 875.587102,12.1447133 875.492595,12.0443548 C875.303581,11.8499104 875.105116,11.6491935 874.900351,11.4610215 C874.594778,11.1599462 874.229351,11 873.845023,11 C873.460694,11 873.088967,11.1599462 872.773943,11.4610215 C872.770793,11.4641577 872.770793,11.4641577 872.767643,11.4672939 L871.696563,12.5430108 C871.293334,12.9444444 871.063366,13.4336918 871.012963,14.0013441 C870.937357,14.9171147 871.208277,15.7701613 871.416193,16.328405 C871.92653,17.6989247 872.688887,18.969086 873.826121,20.3301971 C875.205924,21.9704301 876.866097,23.265681 878.762537,24.1783154 C879.487091,24.5201613 880.454213,24.9247312 881.534743,24.9937276 C881.600898,24.9968638 881.670203,25 881.733208,25 C882.460912,25 883.072057,24.7396953 883.550893,24.2222222 C883.554043,24.2159498 883.560343,24.2128136 883.563493,24.2065412 C883.727306,24.0089606 883.91632,23.8301971 884.114784,23.6388889 C884.250244,23.5103047 884.388855,23.375448 884.524315,23.234319 C884.836188,22.9112903 885,22.5349462 885,22.1491935 C885,21.7603047 884.833038,21.3870968 884.514864,21.0734767 L882.785386,19.3454301 Z M883.913169,22.6478495 C883.910019,22.6478495 883.910019,22.6509857 883.913169,22.6478495 C883.79031,22.7795699 883.664301,22.8987455 883.528841,23.0304659 C883.324076,23.2249104 883.11616,23.4287634 882.920846,23.6577061 C882.602672,23.9964158 882.227794,24.156362 881.736358,24.156362 C881.689104,24.156362 881.638701,24.156362 881.591447,24.1532258 C880.655828,24.093638 879.786363,23.7298387 879.134265,23.4193548 C877.351233,22.5600358 875.785567,21.3400538 874.48452,19.7939068 C873.410291,18.5049283 872.692037,17.313172 872.216352,16.0336022 C871.92338,15.2526882 871.816272,14.6442652 871.863526,14.0703405 C871.895028,13.703405 872.036789,13.3991935 872.298258,13.1388889 L873.372488,12.0694444 C873.526849,11.9251792 873.690661,11.8467742 873.851323,11.8467742 C874.049788,11.8467742 874.21045,11.9659498 874.311257,12.0663082 C874.314408,12.0694444 874.317558,12.0725806 874.320708,12.0757168 C874.512872,12.2544803 874.695586,12.4395161 874.88775,12.6370968 C874.985407,12.7374552 875.086215,12.8378136 875.187022,12.9413082 L876.047036,13.797491 C876.380961,14.1299283 876.380961,14.437276 876.047036,14.7697133 C875.955679,14.8606631 875.867473,14.9516129 875.776116,15.0394265 C875.511496,15.3091398 875.259478,15.5600358 874.985407,15.8046595 C874.979107,15.8109319 874.972806,15.8140681 874.969656,15.8203405 C874.698736,16.0900538 874.74914,16.3534946 874.805844,16.5322581 C874.808994,16.5416667 874.812144,16.5510753 874.815295,16.5604839 C875.038961,17.0999104 875.353985,17.6079749 875.83282,18.2132616 L875.83597,18.2163978 C876.705435,19.2827061 877.622153,20.1137993 878.633378,20.750448 C878.762537,20.8319892 878.894847,20.8978495 879.020857,20.9605735 C879.134265,21.0170251 879.241373,21.0703405 879.33273,21.1267921 C879.345331,21.1330645 879.357932,21.1424731 879.370533,21.1487455 C879.47764,21.2020609 879.578448,21.2271505 879.682406,21.2271505 C879.943875,21.2271505 880.107687,21.0640681 880.161241,21.0107527 L881.238621,19.938172 C881.345729,19.8315412 881.515842,19.702957 881.714306,19.702957 C881.909621,19.702957 882.070283,19.8252688 882.16794,19.9318996 C882.17109,19.9350358 882.17109,19.9350358 882.17424,19.938172 L883.910019,21.6662186 C884.234493,21.9861111 884.234493,22.3154122 883.913169,22.6478495 Z" transform="translate(-871 -11)"/>
</svg>
