<svg xmlns="http://www.w3.org/2000/svg" width="6" height="10" viewBox="0 0 6 10">
  <path fill="#4A4A4A" d="M22,18.0001053 C22,17.9132788 21.9658045,17.8363843 21.8968356,17.7694921 L17.0927769,13.1002681 C17.024097,13.0335163 16.9450175,13 16.855683,13 C16.7663485,13 16.6872329,13.0335163 16.618553,13.1002681 L16.1031283,13.6012929 C16.0343039,13.6680798 16,13.7447988 16,13.8317657 C16,13.9187326 16.0343039,13.9954516 16.1031283,14.0622385 L20.1547406,18.0001053 L16.1031283,21.9380422 C16.0343039,22.0048292 16,22.0816885 16,22.1684097 C16,22.2553416 16.0343039,22.3322009 16.1031283,22.3989878 L16.6185169,22.8998372 C16.6872329,22.9666943 16.7663124,23 16.8556469,23 C16.9449814,23 17.0240609,22.9666241 17.0927769,22.8998372 L21.8968356,18.2305781 C21.9658045,18.1638263 22,18.0869318 22,18.0001053 Z" transform="translate(-16 -13)"/>
</svg>
