<svg xmlns="http://www.w3.org/2000/svg" width="5" height="8" viewBox="0 0 5 8">
  <path fill="#DF2437" d="M5.87006177,6.13192506 C5.78353206,6.0439507 5.68096059,6 5.56244314,6 L-0.562467078,6 C-0.681032419,6 -0.78353206,6.0439507 -0.870133601,6.13192506 C-0.956735143,6.21999672 -1,6.3241212 -1,6.44449309 C-1,6.56484066 -0.956735143,6.66896514 -0.870133601,6.75696383 L2.19233348,9.86797765 C2.27903079,9.95595201 2.38153043,10 2.5,10 C2.61846957,10 2.72106498,9.95595201 2.80759469,9.86797765 L5.87006177,6.7569395 C5.95656754,6.66896514 6,6.56484066 6,6.44446877 C6,6.3241212 5.95656754,6.21999672 5.87006177,6.13192506 Z" transform="rotate(-90 .5 6)"/>
</svg>
