<svg xmlns="http://www.w3.org/2000/svg" width="10" height="10" viewBox="0 0 10 10">
  <path fill="#4A4A4A" d="M18.8333333,18.0001053 C18.8333333,18.0869318 18.8000877,18.1638263 18.7330346,18.2305781 L14.062422,22.8998372 C13.9956147,22.9666241 13.9187319,23 13.8318789,23 C13.7450259,23 13.6681431,22.9666943 13.6013358,22.8998372 L13.1002636,22.3989878 C13.033351,22.3322009 13,22.2553416 13,22.1684097 C13,22.0816885 13.033351,22.0048292 13.1002636,21.9380422 L17.0393311,18.0001053 L13.1002636,14.0622385 C13.033351,13.9954516 13,13.9187326 13,13.8317657 C13,13.7447988 13.033351,13.6680798 13.1002636,13.6012929 L13.601371,13.1002681 C13.6681431,13.0335163 13.745061,13 13.831914,13 C13.918767,13 13.9956498,13.0335163 14.062422,13.1002681 L18.7330346,17.7694921 C18.8000877,17.8363843 18.8333333,17.9132788 18.8333333,18.0001053 Z M23,18.0001053 C23,18.0869318 22.9667543,18.1638263 22.8997013,18.2305781 L18.2290887,22.8998372 C18.1622814,22.9666241 18.0853986,23 17.9985456,23 C17.9116926,23 17.8348098,22.9666943 17.7680025,22.8998372 L17.2669303,22.3989878 C17.2000177,22.3322009 17.1666667,22.2553416 17.1666667,22.1684097 C17.1666667,22.0816885 17.2000177,22.0048292 17.2669303,21.9380422 L21.2059978,18.0001053 L17.2669303,14.0622385 C17.2000177,13.9954516 17.1666667,13.9187326 17.1666667,13.8317657 C17.1666667,13.7447988 17.2000177,13.6680798 17.2669303,13.6012929 L17.7680376,13.1002681 C17.8348098,13.0335163 17.9117277,13 17.9985807,13 C18.0854337,13 18.1623165,13.0335163 18.2290887,13.1002681 L22.8997013,17.7694921 C22.9667543,17.8363843 23,17.9132788 23,18.0001053 Z" transform="translate(-13 -13)"/>
</svg>
