<svg xmlns="http://www.w3.org/2000/svg" width="24" height="24" viewBox="0 0 24 24">
  <path fill="#172D61" d="M46,30 C52.6172561,30 58,35.3832273 58,42 C58,48.6162894 52.6162894,54 46,54 C39.3832273,54 34,48.6162894 34,42 C34,35.3832273 39.3832273,30 46,30 Z M44.3923306,43.9885604 C44.9544832,44.3728349 45.3261903,44.6256344 45.4301136,45.0306936 C45.4547652,45.1336502 45.4663659,45.2361234 45.4663659,45.3347297 C45.4663659,46.3787964 44.6876662,46.9095303 43.1510513,46.9095303 C41.9861436,46.9095303 41.0730686,46.1956014 41.0730686,45.282043 C41.0730686,44.4429227 42.1384033,43.7077258 43.3535809,43.7077258 L43.385483,43.7077258 C43.6498832,43.7111093 43.9079997,43.7497785 44.1511319,43.8242165 C44.2347539,43.8807702 44.314509,43.9368404 44.3923306,43.9885604 Z M43.531459,40.8041569 L43.5203416,40.8041569 C42.7484089,40.7799887 41.9769596,39.8678804 41.8387175,38.812213 C41.7618626,38.2220253 41.8860872,37.6912914 42.1794892,37.35632 C42.3684847,37.1397728 42.6174172,37.0247321 42.8963184,37.0247321 L42.927737,37.0256989 C43.7161041,37.048417 44.4716024,37.9281399 44.6093612,38.984774 C44.6876662,39.5759285 44.5557077,40.132764 44.2579554,40.4720857 C44.0679932,40.6895996 43.8229276,40.8041569 43.5324257,40.8041569 C43.5324257,40.8041569 43.5324257,40.8041569 43.531459,40.8041569 Z M44.6166116,47.84339 C46.0309353,47.4325304 46.944977,46.3923306 46.9454604,45.1882704 C46.9454604,44.0359301 46.5752034,43.3452026 45.5799565,42.6414243 C45.1526625,42.3393217 44.7654878,41.8960767 44.7587207,41.7602513 C44.7587207,41.5132522 44.7804721,41.3938613 45.3363409,40.9607669 C46.0560702,40.3976476 46.4514622,39.6585837 46.4514622,38.8769838 C46.4514622,38.1688552 46.2353984,37.5380649 45.8665915,37.0957867 L46.1522597,37.0957867 C46.2117135,37.0957867 46.2692339,37.0774188 46.3170869,37.0435833 L47.1151212,36.4659631 C47.2132442,36.3949086 47.2548135,36.2682671 47.2171111,36.1532265 C47.1794087,36.0377024 47.0716185,35.958914 46.950294,35.958914 L43.3820994,35.958914 C42.9920245,35.958914 42.5951825,36.0275518 42.2060743,36.161927 C40.9058245,36.6095223 39.9966165,37.7178764 39.9966165,38.8552324 C39.9966165,40.4662853 41.2451462,41.6882301 42.9137195,41.7259325 C42.8808507,41.854024 42.8644163,41.9796987 42.8644163,42.1029566 C42.8644163,42.3509224 42.9267703,42.5868042 43.0558286,42.8144687 C43.0413276,42.8144687 43.0263433,42.8144687 43.0103923,42.8144687 C41.4196407,42.8144687 39.9835656,43.5955853 39.4388141,44.7566261 C39.2967051,45.0592121 39.2246838,45.3646983 39.2246838,45.6658342 C39.2246838,45.9582696 39.2996053,46.2405543 39.4475147,46.5054378 C39.7907033,47.1183437 40.5254169,47.5939741 41.5196971,47.8448401 C42.0335133,47.9748651 42.5845485,48.0406026 43.1578184,48.0406026 C43.6726013,48.0406026 44.163216,47.9743817 44.6166116,47.84339 Z M52.6747764,41.7230323 L52.6742931,41.7230323 L52.6742931,41.1454121 C52.6742931,40.9907355 52.548135,40.8650608 52.3939418,40.8650608 L50.3667123,40.8650608 L50.3667123,38.8383147 C50.3667123,38.6831548 50.2405543,38.5579634 50.0873278,38.5579634 L49.5097076,38.5579634 C49.3540643,38.5579634 49.2283896,38.6831548 49.2283896,38.8383147 L49.2283896,40.8650608 L47.2021268,40.8650608 C47.0474503,40.8650608 46.9217756,40.9917022 46.9217756,41.1463788 L46.9217756,41.7230323 C46.9217756,41.8786756 47.0474503,42.0033835 47.2021268,42.0033835 L49.2283896,42.0033835 L49.2283896,44.0320632 C49.2283896,44.1867397 49.3540643,44.3124144 49.5097076,44.3124144 L50.0873278,44.3124144 C50.2405543,44.3124144 50.3667123,44.1867397 50.3667123,44.0320632 L50.3667123,42.0033835 L52.3944252,42.0033835 C52.5486184,42.0033835 52.6747764,41.8777089 52.6747764,41.7230323 Z" transform="translate(-34 -30)"/>
</svg>
