<svg xmlns="http://www.w3.org/2000/svg" width="10" height="14" viewBox="0 0 10 14">
  <path fill="#4A4A4A" d="M153,11 C150.242985,11 148,13.2745106 148,16.0702484 C148,19.5398463 152.47451,24.633419 152.665016,24.8485598 C152.843955,25.0506577 153.156369,25.0503023 153.334984,24.8485598 C153.52549,24.633419 158,19.5398463 158,16.0702484 C157.999946,13.2745106 155.756988,11 153,11 Z M153,18.6212319 C151.612877,18.6212319 150.484401,17.4768673 150.484401,16.0702484 C150.484401,14.6636295 151.612904,13.5192921 153,13.5192921 C154.387096,13.5192921 155.515572,14.6636568 155.515572,16.0702757 C155.515572,17.4768946 154.387096,18.6212319 153,18.6212319 Z" transform="translate(-148 -11)"/>
</svg>
