<svg xmlns="http://www.w3.org/2000/svg" width="35" height="24" viewBox="0 0 35 24">
  <path fill="#172D61" d="M28.6143352,26.5483871 C27.7591122,26.5483871 26.9466504,26.8853047 26.3337406,27.4946237 C25.7208308,28.1111111 25.3787416,28.9139785 25.3787416,29.7741935 C25.3787416,30.6344086 25.7137039,31.437276 26.3337406,32.0537634 C26.9537772,32.6630824 27.7591122,33 28.6143352,33 C30.3675423,33 31.7929139,31.5519713 31.7929139,29.7741935 C31.7929139,27.9964158 30.3675423,26.5483871 28.6143352,26.5483871 Z M28.6143352,31.5663082 C27.6308288,31.5663082 26.8041132,30.7491039 26.8041132,29.7741935 C26.8041132,28.7992832 27.6308288,27.9820789 28.6143352,27.9820789 C29.5835879,27.9820789 30.3675423,28.7849462 30.3675423,29.7741935 C30.3675423,30.7634409 29.5835879,31.5663082 28.6143352,31.5663082 Z M29.4410507,15.8028674 C29.3127673,15.6810036 29.1417227,15.6164875 28.9635512,15.6164875 L25.307473,15.6164875 C24.9154958,15.6164875 24.5947872,15.9390681 24.5947872,16.3333333 L24.5947872,22.2114695 C24.5947872,22.6057348 24.9154958,22.9283154 25.307473,22.9283154 L31.1087355,22.9283154 C31.5007127,22.9283154 31.8214213,22.6057348 31.8214213,22.2114695 L31.8214213,18.2759857 C31.8214213,18.0752688 31.735899,17.8817204 31.586235,17.7455197 L29.4410507,15.8028674 Z M30.3960497,21.4946237 L26.0201588,21.4946237 L26.0201588,17.0430108 L28.6856037,17.0430108 L30.3960497,18.5913978 L30.3960497,21.4946237 Z M11.2105477,26.5483871 C10.3553248,26.5483871 9.54286296,26.8853047 8.92995317,27.4946237 C8.31704337,28.1111111 7.97495418,28.9139785 7.97495418,29.7741935 C7.97495418,30.6344086 8.30991651,31.437276 8.92995317,32.0537634 C9.54998982,32.6630824 10.3553248,33 11.2105477,33 C12.9637548,33 14.3891265,31.5519713 14.3891265,29.7741935 C14.3891265,27.9964158 12.9637548,26.5483871 11.2105477,26.5483871 Z M11.2105477,31.5663082 C10.2270413,31.5663082 9.4003258,30.7491039 9.4003258,29.7741935 C9.4003258,28.7992832 10.2270413,27.9820789 11.2105477,27.9820789 C12.1798004,27.9820789 12.9637548,28.7849462 12.9637548,29.7741935 C12.9637548,30.7634409 12.1798004,31.5663082 11.2105477,31.5663082 Z M6.45693341,27.4301075 L5.02443494,27.4301075 L5.02443494,25.5232975 C5.02443494,25.1290323 4.70372633,24.8064516 4.31174913,24.8064516 C3.91977194,24.8064516 3.59906333,25.1290323 3.59906333,25.5232975 L3.59906333,28.1469534 C3.59906333,28.5412186 3.91977194,28.8637993 4.31174913,28.8637993 L6.45693341,28.8637993 C6.84891061,28.8637993 7.16961922,28.5412186 7.16961922,28.1469534 C7.16961922,27.7526882 6.84891061,27.4301075 6.45693341,27.4301075 Z M10.0702505,23.5232975 C10.0702505,23.1290323 9.74954184,22.8064516 9.35756465,22.8064516 L0.712685807,22.8064516 C0.320708613,22.8064516 0,23.1290323 0,23.5232975 C0,23.9175627 0.320708613,24.2401434 0.712685807,24.2401434 L9.35756465,24.2401434 C9.74954184,24.2401434 10.0702505,23.9247312 10.0702505,23.5232975 Z M2.159438,20.9354839 L10.8043168,20.9856631 C11.196294,20.9856631 11.5170026,20.6702509 11.5241295,20.2759857 C11.5312564,19.874552 11.2105477,19.5519713 10.8185706,19.5519713 L2.17369171,19.5017921 C2.16656485,19.5017921 2.16656485,19.5017921 2.16656485,19.5017921 C1.77458766,19.5017921 1.45387905,19.8172043 1.45387905,20.2114695 C1.44675219,20.6129032 1.7674608,20.9354839 2.159438,20.9354839 Z M3.61331704,17.6810036 L12.2581959,17.6810036 C12.6501731,17.6810036 12.9708817,17.3584229 12.9708817,16.9641577 C12.9708817,16.5698925 12.6501731,16.2473118 12.2581959,16.2473118 L3.61331704,16.2473118 C3.22133985,16.2473118 2.90063124,16.5698925 2.90063124,16.9641577 C2.90063124,17.3584229 3.22133985,17.6810036 3.61331704,17.6810036 Z M34.7363063,16.7132616 L29.6334759,12.4623656 C29.5051924,12.3548387 29.3484015,12.297491 29.177357,12.297491 L23.1765425,12.297491 L23.1765425,9.71684588 C23.1765425,9.32258065 22.8558338,9 22.4638566,9 L4.31174913,9 C3.91977194,9 3.59906333,9.32258065 3.59906333,9.71684588 L3.59906333,14.9641577 C3.59906333,15.3584229 3.91977194,15.6810036 4.31174913,15.6810036 C4.70372633,15.6810036 5.02443494,15.3584229 5.02443494,14.9641577 L5.02443494,10.4336918 L21.7582977,10.4336918 L21.7582977,27.4301075 L15.9142741,27.4301075 C15.5222969,27.4301075 15.2015883,27.7526882 15.2015883,28.1469534 C15.2015883,28.5412186 15.5222969,28.8637993 15.9142741,28.8637993 L24.6161678,28.8637993 C25.008145,28.8637993 25.3288536,28.5412186 25.3288536,28.1469534 C25.3288536,27.7526882 25.008145,27.4301075 24.6161678,27.4301075 L23.1836693,27.4301075 L23.1836693,13.7311828 L28.9279169,13.7311828 L33.5746284,17.6021505 L33.5247404,27.4157706 L32.7835471,27.4157706 C32.3915699,27.4157706 32.0708613,27.7383513 32.0708613,28.1326165 C32.0708613,28.5268817 32.3915699,28.8494624 32.7835471,28.8494624 L34.2302993,28.8494624 C34.6222765,28.8494624 34.9429851,28.5340502 34.9429851,28.1397849 L35,17.2724014 C34.9928731,17.0573477 34.900224,16.8494624 34.7363063,16.7132616 Z" transform="translate(0 -9)"/>
</svg>
