<svg xmlns="http://www.w3.org/2000/svg" width="44" height="44" viewBox="0 0 44 44">
  <path fill="#FFF" d="M182,80 C169.849898,80 160,89.8497266 160,102 C160,114.150273 169.849898,124 182,124 C194.150102,124 204,114.150273 204,102 C204,89.8497266 194.150102,80 182,80 Z M189.60375,103.166172 L178.60375,110.041172 C178.381172,110.180133 178.128086,110.25 177.875,110.25 C177.645719,110.25 177.416094,110.192937 177.208297,110.077438 C176.771219,109.835094 176.5,109.375156 176.5,108.875 L176.5,95.125 C176.5,94.6248437 176.771219,94.1649063 177.208297,93.9225625 C177.645375,93.6788437 178.17982,93.693625 178.60375,93.9588281 L189.60375,100.833828 C190.005594,101.085625 190.25,101.526055 190.25,102 C190.25,102.473945 190.005594,102.914461 189.60375,103.166172 Z" transform="translate(-160 -80)"/>
</svg>
