<svg xmlns="http://www.w3.org/2000/svg" width="24" height="24" viewBox="0 0 24 24">
  <path fill="#172D61" d="M92,42 C92,35.3727059 86.6272549,30 80,30 C73.3727059,30 68,35.3727059 68,42 C68,48.6272549 73.3727059,54 80,54 C86.6272549,54 92,48.6272549 92,42 Z M73.538549,46.2643529 C73.7458431,46.290549 73.957451,46.3047059 74.1712941,46.3047059 C75.4138431,46.306902 76.557098,45.8585098 77.4636471,45.1058039 C76.302902,45.078549 75.3243922,44.2581961 74.9872941,43.1323529 C75.1487451,43.1661569 75.3156863,43.1858039 75.4858431,43.1869412 C75.7280392,43.188 75.9614902,43.1552549 76.1840392,43.092 C74.9709412,42.8236471 74.0567843,41.6727451 74.0567843,40.301451 C74.0567843,40.289451 74.0567843,40.277451 74.0567843,40.265451 C74.4145882,40.481451 74.8225882,40.6123529 75.2578431,40.632 C74.5476863,40.1181569 74.0796863,39.245451 74.0796863,38.2636078 C74.0796863,37.7443529 74.2105882,37.2599608 74.4385882,36.8454118 C75.7465882,38.5745098 77.7003922,39.7221176 79.9029412,39.8650196 C79.8571373,39.6588627 79.8341961,39.4439216 79.8341961,39.2246667 C79.8341961,37.6744706 81.0211373,36.4374118 82.4851373,36.4614118 C83.2476471,36.4745098 83.937098,36.8246667 84.4204314,37.3745098 C85.0247843,37.2588627 85.5920392,37.0363137 86.1036863,36.7254118 C85.9062353,37.3723137 85.4851765,37.9112157 84.9375294,38.2483137 C85.4742745,38.1883137 85.9847843,38.0465098 86.4604314,37.8316078 C86.1048235,38.3847059 85.6553333,38.8679608 85.1371765,39.2541569 C85.1426275,39.3741569 85.1447843,39.4941569 85.1447843,39.6141569 C85.1447843,43.294902 82.4774902,47.5396078 77.6011373,47.5374118 C76.105451,47.5385098 74.7112941,47.069451 73.538549,46.2643529 Z" transform="translate(-68 -30)"/>
</svg>
