<svg xmlns="http://www.w3.org/2000/svg" width="58" height="50" viewBox="0 0 58 50">
  <path fill="#172D61" d="M48.6472125,20.6499686 L47.6522749,20.6499686 C45.1649308,13.2834114 37.745913,7.92725663 29.0009351,7.92725663 C20.2596975,7.92725663 12.8369393,13.2834114 10.3495953,20.6499686 L9.35091736,20.6499686 C7.2862348,20.6499686 5.59745913,22.309934 5.59745913,24.3553801 L5.59745913,28.6676012 C5.59745913,30.7038253 7.28436462,32.3693238 9.35091736,32.3693238 L10.2448651,32.3693238 C13.822526,46.0216164 28.4473608,49.8579807 28.6119369,49.9059353 L28.9934544,50 L29.3693612,49.9096241 C29.5395479,49.8708916 44.218618,46.1820798 47.7719666,32.3693238 L48.6472125,32.3693238 C50.7156354,32.3693238 52.4044111,30.7093585 52.4044111,28.6676012 L52.4044111,24.3535357 C52.4025409,22.3117784 50.7156354,20.6499686 48.6472125,20.6499686 Z M41.6358946,38.2105574 L31.7893786,38.2105574 C31.3124819,37.3565974 30.3942218,36.777454 29.3338277,36.777454 C27.7890562,36.777454 26.5360333,38.0132059 26.5360333,39.5366852 C26.5360333,41.0638533 27.7890562,42.2959165 29.3338277,42.2959165 C30.5644085,42.2959165 31.6117112,41.5101996 31.9838777,40.4183113 L39.7694515,40.4183113 C35.6213846,44.6770445 30.4652887,46.3794312 29.0028053,46.7981113 C26.4481347,46.0455937 12.5900751,41.257516 12.5900751,26.0669888 C12.5900751,25.8124608 12.5975559,25.5671548 12.6162577,25.31816 C16.859704,24.5324431 21.8231709,23.2173817 23.5044659,21.2069792 C23.5044659,21.2069792 24.1739916,24.9585009 21.7109599,26.504113 C21.7109599,26.504113 30.4447167,25.181674 32.0156708,22.5349515 C32.0156708,22.5349515 32.3223809,29.4016747 45.2565698,28.6436239 C44.8357785,32.5869637 43.4424919,35.7261426 41.6358946,38.2105574 Z M56.1840518,22.9001439 C55.645439,9.78272898 44.1400703,0 29.0009351,0 C13.8543192,0 2.35643117,9.77904017 1.81594815,22.9001439 C0.72750137,23.3962891 0,24.3756686 0,25.5284223 L0,27.4871814 C0,29.1508355 1.51297843,30.4548305 3.44300777,30.4548305 L4.94289492,30.4548305 L4.94289492,28.4665609 L4.94289492,24.5471983 L4.94289492,23.2800915 C5.27952794,11.7285772 15.503821,3.09306872 29.0009351,3.09306872 C42.5055299,3.09306872 52.7316932,11.7396437 53.0571051,23.2985355 L53.0571051,24.5490428 L53.0571051,28.4684053 L53.0571051,30.4529861 L54.5569922,30.4529861 C56.4870216,30.4529861 58,29.1526799 58,27.4890258 L58,25.5302667 C58,24.3756686 57.2724986,23.3944446 56.1840518,22.9001439 Z"/>
</svg>
