<svg xmlns="http://www.w3.org/2000/svg" width="24" height="24" viewBox="0 0 24 24">
  <path fill="#172D61" d="M114,54 C107.372583,54 102,48.627417 102,42 C102,35.372583 107.372583,30 114,30 C120.627417,30 126,35.372583 126,42 C126,48.627417 120.627417,54 114,54 Z M120.102496,42.5968451 C120.102496,41.5995881 119.237663,40.7831166 118.180397,40.7831166 L110.276833,40.7831166 C109.219162,40.7831166 108.354532,41.5993856 108.354532,42.5968451 L108.354532,46.7545049 C108.354532,47.7517619 109.219112,48.5678789 110.276833,48.5678789 L118.180195,48.5678789 C119.237713,48.5678789 120.102496,47.7519644 120.102496,46.7545049 L120.102496,42.5968451 Z M110.803795,47.2060633 L110.803795,47.2058608 L109.986766,47.2058608 L109.986766,42.8138383 L109.171409,42.8113569 L109.171409,42.1735439 L111.783074,42.1775445 L111.783074,42.8267009 L110.80344,42.8263464 L110.803795,47.2060633 Z M113.740773,43.4788957 L113.74057,43.4788957 L113.74057,47.204696 L113.08478,47.2037339 L113.086299,46.7209304 C112.910071,47.0993645 112.205616,47.4038638 111.838373,47.1387625 C111.640725,46.9975777 111.648118,46.7495421 111.628217,46.5369547 C111.61743,46.416431 111.625938,46.1515323 111.625583,45.7962408 L111.622545,43.4786931 L112.434864,43.4786931 L112.438662,45.8334107 C112.439017,46.1549758 112.421596,46.3421926 112.441295,46.404328 C112.557464,46.7585054 112.856089,46.5659715 112.922782,46.384629 C112.944152,46.3251268 112.923896,46.155938 112.923896,45.8175097 L112.923896,43.4788957 L113.740773,43.4788957 Z M116.353958,46.1568495 C116.355427,47.1003266 115.816159,47.6395939 114.958365,46.8520378 L114.897344,47.1633736 L114.226362,47.1732485 L114.230362,42.1782534 L115.046479,42.1769368 L115.043086,43.624233 C115.796865,43.0239444 116.351679,43.4682613 116.352439,44.2102918 L116.353958,46.1568495 Z M115.389465,43.8191977 C115.193741,43.8191977 115.03306,43.9512673 115.03306,44.1127082 L115.03306,46.2983888 C115.03306,46.4598297 115.193741,46.5911397 115.389465,46.5911397 C115.586709,46.5911397 115.74739,46.4598297 115.74739,46.2983888 L115.74739,44.1125056 C115.74739,43.9512673 115.586709,43.8191977 115.389465,43.8191977 Z M118.910831,45.8989897 C119.189909,47.5584683 116.846586,47.8311657 116.846079,45.9018762 L116.846079,44.7413047 C116.846079,44.3930015 116.880565,44.1192407 116.950094,43.9185537 C117.019421,43.7176641 117.137868,43.5683769 117.293232,43.4567659 C117.788138,43.0996008 118.767418,43.2102496 118.867635,43.9081218 C118.899488,44.1286598 118.909514,44.5142847 118.909514,44.8998591 L118.909514,45.4277829 L117.506933,45.4277829 L117.506933,45.9128651 L117.506933,46.2891723 L117.506933,46.3270511 C117.506933,46.5099128 117.657942,46.6588456 117.841918,46.6588456 L117.961885,46.6588456 C118.145506,46.6588456 118.296515,46.5099128 118.296515,46.3270511 L118.296515,45.9852299 C118.29692,45.954542 118.298034,45.9266899 118.298034,45.9022307 L118.910831,45.8989897 Z M118.29216,44.7823738 L118.301225,44.3329423 C118.301225,44.1330655 118.136593,43.9699029 117.935906,43.9699029 L117.886279,43.9699029 C117.685643,43.9699029 117.52172,44.1330149 117.52172,44.3329423 L117.517922,44.7823738 L118.29216,44.7823738 Z M115.768811,39.5975288 C115.81069,39.700227 115.876067,39.7830237 115.965295,39.8459188 C116.052649,39.9072947 116.165222,39.9385903 116.29952,39.9385903 C116.417208,39.9385903 116.521577,39.9067377 116.612172,39.8410067 C116.702919,39.7756303 116.779487,39.6782492 116.841623,39.5479014 L116.826076,39.8685043 L117.736536,39.8685043 L117.736536,35.996202 L117.019724,35.996202 L117.019724,39.0099508 C117.019724,39.1729109 116.885021,39.3064997 116.720694,39.3064997 C116.557531,39.3064997 116.422423,39.1729109 116.422423,39.0099508 L116.422423,35.996202 L115.674519,35.996202 L115.674519,38.6078678 C115.674519,38.9406244 115.680393,39.162479 115.69042,39.2750521 C115.701155,39.386815 115.726729,39.4938683 115.768811,39.5975288 Z M113.009579,37.4105315 L113.009731,37.4105315 L113.009731,38.4358431 C113.009731,38.7753855 113.026037,39.0298524 113.060523,39.1994463 C113.094452,39.3688377 113.150714,39.514175 113.231434,39.6335339 C113.310838,39.7526903 113.422651,39.8425259 113.567026,39.9020281 C113.710845,39.9620874 113.885958,39.9906991 114.093229,39.9906991 C114.279331,39.9906991 114.443608,39.9566182 114.587223,39.8866842 C114.729725,39.8177122 114.84721,39.7095448 114.93816,39.5647646 C115.030274,39.4186677 115.089726,39.2627466 115.117224,39.0944692 C115.145076,38.9265464 115.159457,38.6624073 115.159457,38.3031659 L115.159457,37.3237342 C115.159457,37.0400986 115.144671,36.8291822 115.113983,36.6897192 C115.083852,36.5519779 115.028147,36.4172751 114.945148,36.2863196 C114.864428,36.1557692 114.747145,36.0502351 114.596136,35.968755 C114.445127,35.887832 114.264544,35.8463577 114.054033,35.8463577 C113.803921,35.8463577 113.597714,35.9098098 113.436679,36.0369673 C113.275592,36.1631626 113.163829,36.3308323 113.102048,36.5394698 C113.040673,36.7486644 113.009579,37.0387819 113.009579,37.4105315 Z M113.722391,38.9489294 L113.722391,36.8873678 C113.722391,36.6681465 113.885908,36.4892854 114.08467,36.4892854 C114.283433,36.4892854 114.445836,36.668349 114.445836,36.8873678 L114.445836,38.9489294 C114.445836,39.1681507 114.283433,39.3470118 114.08467,39.3470118 C113.885908,39.3470118 113.722391,39.1679481 113.722391,38.9489294 Z M111.202434,39.9897369 L112.061747,39.9897369 L112.062507,37.0197919 L113.077589,34.4755788 L112.137961,34.4755788 L111.598288,36.3656727 L111.050868,34.4706667 L110.121266,34.4706667 L111.201117,37.0215136 L111.202434,39.9897369 Z" transform="translate(-102 -30)"/>
</svg>
